<svg xmlns="http://www.w3.org/2000/svg" width="180" height="180" viewBox="0 0 180 180" fill="none" stroke="#0b0b0c" stroke-opacity=".045" stroke-width="1.3" stroke-linecap="round" stroke-linejoin="round">
  <path d="M45 35c.5 3.8 2 5.3 5.8 5.8-3.8.5-5.3 2-5.8 5.8-.5-3.8-2-5.3-5.8-5.8 3.8-.5 5.3-2 5.8-5.8Z"/>
  <g transform="rotate(30 135 45)"><path d="M135 32v16"/><path d="M130 48h10l2 10h-14Z"/></g>
  <circle cx="87" cy="137" r="5"/><circle cx="95" cy="129" r="2.4"/>
  <g transform="rotate(-8 0 135)"><rect x="-6" y="130" width="12" height="16" rx="3"/><path d="M-3 130v-4h6v4"/></g>
  <g transform="rotate(-8 180 135)"><rect x="174" y="130" width="12" height="16" rx="3"/><path d="M177 130v-4h6v4"/></g>
</svg>
